<mxfile host="app.diagrams.net" modified="2023-09-28T13:04:19.342Z" agent="Mozilla/5.0 (Macintosh; Intel Mac OS X 10_15_7) AppleWebKit/537.36 (KHTML, like Gecko) Chrome/116.0.0.0 Safari/537.36" etag="qEts1LTb9pVnWyCan65i" version="21.3.4" type="device">
  <diagram name="Страница 1" id="e6wJgubho37ItNygdWk6">
    <mxGraphModel dx="1026" dy="575" grid="1" gridSize="10" guides="1" tooltips="1" connect="1" arrows="1" fold="1" page="1" pageScale="1" pageWidth="827" pageHeight="1169" math="0" shadow="0">
      <root>
        <mxCell id="0" />
        <mxCell id="1" parent="0" />
        <mxCell id="MmQcngY2rdd8kaFNH9nb-3" value="" style="edgeStyle=orthogonalEdgeStyle;rounded=0;orthogonalLoop=1;jettySize=auto;html=1;" edge="1" parent="1" source="MmQcngY2rdd8kaFNH9nb-1" target="MmQcngY2rdd8kaFNH9nb-2">
          <mxGeometry relative="1" as="geometry" />
        </mxCell>
        <mxCell id="MmQcngY2rdd8kaFNH9nb-1" value="public char DeQueue()" style="strokeWidth=2;html=1;shape=mxgraph.flowchart.terminator;whiteSpace=wrap;" vertex="1" parent="1">
          <mxGeometry x="364" y="80" width="100" height="60" as="geometry" />
        </mxCell>
        <mxCell id="MmQcngY2rdd8kaFNH9nb-7" value="Так" style="edgeStyle=orthogonalEdgeStyle;rounded=0;orthogonalLoop=1;jettySize=auto;html=1;" edge="1" parent="1" source="MmQcngY2rdd8kaFNH9nb-2" target="MmQcngY2rdd8kaFNH9nb-6">
          <mxGeometry x="0.2" relative="1" as="geometry">
            <mxPoint as="offset" />
          </mxGeometry>
        </mxCell>
        <mxCell id="MmQcngY2rdd8kaFNH9nb-16" value="Ні" style="edgeStyle=orthogonalEdgeStyle;rounded=0;orthogonalLoop=1;jettySize=auto;html=1;" edge="1" parent="1" source="MmQcngY2rdd8kaFNH9nb-2" target="MmQcngY2rdd8kaFNH9nb-8">
          <mxGeometry relative="1" as="geometry">
            <Array as="points">
              <mxPoint x="320" y="190" />
              <mxPoint x="320" y="345" />
            </Array>
          </mxGeometry>
        </mxCell>
        <mxCell id="MmQcngY2rdd8kaFNH9nb-2" value="_Head == null" style="strokeWidth=2;html=1;shape=mxgraph.flowchart.decision;whiteSpace=wrap;" vertex="1" parent="1">
          <mxGeometry x="361" y="160" width="106" height="60" as="geometry" />
        </mxCell>
        <mxCell id="MmQcngY2rdd8kaFNH9nb-9" value="" style="edgeStyle=orthogonalEdgeStyle;rounded=0;orthogonalLoop=1;jettySize=auto;html=1;" edge="1" parent="1" source="MmQcngY2rdd8kaFNH9nb-6" target="MmQcngY2rdd8kaFNH9nb-8">
          <mxGeometry relative="1" as="geometry" />
        </mxCell>
        <mxCell id="MmQcngY2rdd8kaFNH9nb-6" value="The queue&lt;br&gt;is empty." style="shape=parallelogram;perimeter=parallelogramPerimeter;whiteSpace=wrap;html=1;fixedSize=1;strokeWidth=2;" vertex="1" parent="1">
          <mxGeometry x="361" y="250" width="106" height="40" as="geometry" />
        </mxCell>
        <mxCell id="MmQcngY2rdd8kaFNH9nb-11" value="" style="edgeStyle=orthogonalEdgeStyle;rounded=0;orthogonalLoop=1;jettySize=auto;html=1;" edge="1" parent="1" source="MmQcngY2rdd8kaFNH9nb-8" target="MmQcngY2rdd8kaFNH9nb-10">
          <mxGeometry relative="1" as="geometry" />
        </mxCell>
        <mxCell id="MmQcngY2rdd8kaFNH9nb-8" value="char removedItem = _Head._inf;&lt;br&gt;_Head = _Head._R;" style="whiteSpace=wrap;html=1;strokeWidth=2;" vertex="1" parent="1">
          <mxGeometry x="352" y="310" width="124" height="60" as="geometry" />
        </mxCell>
        <mxCell id="MmQcngY2rdd8kaFNH9nb-13" value="Так" style="edgeStyle=orthogonalEdgeStyle;rounded=0;orthogonalLoop=1;jettySize=auto;html=1;" edge="1" parent="1" source="MmQcngY2rdd8kaFNH9nb-10" target="MmQcngY2rdd8kaFNH9nb-12">
          <mxGeometry x="-0.4545" relative="1" as="geometry">
            <mxPoint as="offset" />
          </mxGeometry>
        </mxCell>
        <mxCell id="MmQcngY2rdd8kaFNH9nb-15" value="Ні" style="edgeStyle=orthogonalEdgeStyle;rounded=0;orthogonalLoop=1;jettySize=auto;html=1;" edge="1" parent="1" source="MmQcngY2rdd8kaFNH9nb-10" target="MmQcngY2rdd8kaFNH9nb-14">
          <mxGeometry x="-0.4891" relative="1" as="geometry">
            <Array as="points">
              <mxPoint x="490" y="428" />
              <mxPoint x="490" y="585" />
            </Array>
            <mxPoint as="offset" />
          </mxGeometry>
        </mxCell>
        <mxCell id="MmQcngY2rdd8kaFNH9nb-10" value="(_Head != null" style="rhombus;whiteSpace=wrap;html=1;strokeWidth=2;" vertex="1" parent="1">
          <mxGeometry x="361" y="390" width="106" height="55" as="geometry" />
        </mxCell>
        <mxCell id="MmQcngY2rdd8kaFNH9nb-19" style="edgeStyle=orthogonalEdgeStyle;rounded=0;orthogonalLoop=1;jettySize=auto;html=1;" edge="1" parent="1" source="MmQcngY2rdd8kaFNH9nb-12" target="MmQcngY2rdd8kaFNH9nb-17">
          <mxGeometry relative="1" as="geometry">
            <Array as="points">
              <mxPoint x="330" y="510" />
              <mxPoint x="330" y="670" />
            </Array>
          </mxGeometry>
        </mxCell>
        <mxCell id="MmQcngY2rdd8kaFNH9nb-12" value="_Head._L = null;" style="whiteSpace=wrap;html=1;strokeWidth=2;" vertex="1" parent="1">
          <mxGeometry x="354" y="480" width="120" height="60" as="geometry" />
        </mxCell>
        <mxCell id="MmQcngY2rdd8kaFNH9nb-18" value="" style="edgeStyle=orthogonalEdgeStyle;rounded=0;orthogonalLoop=1;jettySize=auto;html=1;" edge="1" parent="1" source="MmQcngY2rdd8kaFNH9nb-14" target="MmQcngY2rdd8kaFNH9nb-17">
          <mxGeometry relative="1" as="geometry" />
        </mxCell>
        <mxCell id="MmQcngY2rdd8kaFNH9nb-14" value="_Tail = null;" style="whiteSpace=wrap;html=1;strokeWidth=2;" vertex="1" parent="1">
          <mxGeometry x="354" y="555" width="120" height="60" as="geometry" />
        </mxCell>
        <mxCell id="MmQcngY2rdd8kaFNH9nb-17" value="return removedItem" style="strokeWidth=2;html=1;shape=mxgraph.flowchart.terminator;whiteSpace=wrap;" vertex="1" parent="1">
          <mxGeometry x="364" y="640" width="100" height="60" as="geometry" />
        </mxCell>
      </root>
    </mxGraphModel>
  </diagram>
</mxfile>
